HIERARCHY
ROOT SpineBase
{
  OFFSET 0.000000 0.000000 0.000000
  CHANNELS 6 Xposition Yposition Zposition Zrotation Xrotation Yrotation
  JOINT SpineMid
  {
    OFFSET -0.000000 31.833070 0.000000
    CHANNELS 3 Zrotation Xrotation Yrotation
    JOINT SpineShoulder
    {
      OFFSET 0.056261 23.621725 -0.784193
      CHANNELS 3 Zrotation Xrotation Yrotation
      JOINT Neck
      {
        OFFSET 0.055028 7.803638 -0.587598
        CHANNELS 3 Zrotation Xrotation Yrotation
        JOINT Head
        {
          OFFSET -4.807291 13.128442 0.779219
          CHANNELS 3 Zrotation Xrotation Yrotation
          End Site
          {
            OFFSET 0 0 0
          }
        }
      }
      JOINT ShoulderLeft
      {
        OFFSET -16.216210 -3.990132 9.409907
        CHANNELS 3 Zrotation Xrotation Yrotation
        JOINT ElbowLeft
        {
          OFFSET -2.354076 -27.824893 1.650279
          CHANNELS 3 Zrotation Xrotation Yrotation
          JOINT WristLeft
          {
            OFFSET 0.627127 -25.511879 -2.415231
            CHANNELS 3 Zrotation Xrotation Yrotation
            JOINT HandLeft
            {
              OFFSET -0.703150 -5.443009 0.224187
              CHANNELS 3 Zrotation Xrotation Yrotation
              JOINT HandTipLeft
              {
                OFFSET 0.852910 -8.362523 1.257158
                CHANNELS 3 Zrotation Xrotation Yrotation
                End Site
                {
                  OFFSET 0 0 0
                }
              }
              JOINT ThumbLeft
              {
                OFFSET 2.750502 0.988597 -0.468260
                CHANNELS 3 Zrotation Xrotation Yrotation
                End Site
                {
                  OFFSET 0 0 0
                }
              }
            }
          }
        }
      }
      JOINT ShoulderRight
      {
        OFFSET 12.419923 -3.614670 -8.366769
        CHANNELS 3 Zrotation Xrotation Yrotation
        JOINT ElbowRight
        {
          OFFSET 8.023349 -27.033238 -4.328456
          CHANNELS 3 Zrotation Xrotation Yrotation
          JOINT WristRight
          {
            OFFSET 2.152970 -21.266800 -6.302928
            CHANNELS 3 Zrotation Xrotation Yrotation
            JOINT HandRight
            {
              OFFSET -0.424792 -7.589598 -0.961260
              CHANNELS 3 Zrotation Xrotation Yrotation
              JOINT HandTipRight
              {
                OFFSET 0.135555 -6.679466 -0.667909
                CHANNELS 3 Zrotation Xrotation Yrotation
                End Site
                {
                  OFFSET 0 0 0
                }
              }
              JOINT ThumbRight
              {
                OFFSET 3.014992 -0.414720 -1.362956
                CHANNELS 3 Zrotation Xrotation Yrotation
                End Site
                {
                  OFFSET 0 0 0
                }
              }
            }
          }
        }
      }
    }
  }
  JOINT HipLeft
  {
    OFFSET -6.492025 -0.142292 -0.279670
    CHANNELS 3 Zrotation Xrotation Yrotation
    JOINT KneeLeft
    {
      OFFSET 4.199245 -34.831378 5.563408
      CHANNELS 3 Zrotation Xrotation Yrotation
      JOINT AnkleLeft
      {
        OFFSET 10.405460 -37.412399 12.030028
        CHANNELS 3 Zrotation Xrotation Yrotation
        JOINT FootLeft
        {
          OFFSET -2.269655 -8.106390 -5.018044
          CHANNELS 3 Zrotation Xrotation Yrotation
          End Site
          {
            OFFSET 0 0 0
          }
        }
      }
    }
  }
  JOINT HipRight
  {
    OFFSET 7.106362 1.750156 -6.706390
    CHANNELS 3 Zrotation Xrotation Yrotation
    JOINT KneeRight
    {
      OFFSET 8.016611 -35.245179 0.534340
      CHANNELS 3 Zrotation Xrotation Yrotation
      JOINT AnkleRight
      {
        OFFSET 5.487865 -36.275390 11.453835
        CHANNELS 3 Zrotation Xrotation Yrotation
        JOINT FootRight
        {
          OFFSET -1.367246 -8.452219 -3.600008
          CHANNELS 3 Zrotation Xrotation Yrotation
          End Site
          {
            OFFSET 0 0 0
          }
        }
      }
    }
  }
}
MOTION
Frames: 9
Frame Time: 0.033333
-29.949651 81.684930 333.649143 0.000000 0.000000 25.295841 -0.000000 0.000000 -25.295841 -0.000000 0.000000 0.000000 -0.000000 0.000000 0.000000 0.000000 0.000000 0.000000 -0.000000 0.000000 0.000000 -0.000000 0.000000 0.000000 -0.000000 0.000000 0.000000 -0.000000 0.000000 0.000000 0.000000 0.000000 0.000000 0.000000 0.000000 0.000000 -0.000000 0.000000 0.000000 -0.000000 0.000000 0.000000 -0.000000 0.000000 0.000000 -0.000000 0.000000 0.000000 0.000000 0.000000 0.000000 0.000000 0.000000 0.000000 -0.000000 0.000000 -25.295841 -0.000000 0.000000 0.000000 -0.000000 0.000000 0.000000 0.000000 0.000000 0.000000 -0.000000 0.000000 -25.295841 -0.000000 0.000000 0.000000 -0.000000 0.000000 0.000000 0.000000 0.000000 0.000000
-29.958843 81.663711 333.560533 0.011713 0.042491 25.236314 -0.028711 -0.033442 -25.236327 -0.000000 0.000000 0.000000 -0.000000 0.000000 0.000000 0.000000 0.000000 0.000000 -0.000000 0.000000 0.000000 -0.000000 0.000000 0.000000 -2.618003 1.029978 -0.216813 2.429316 0.825884 0.424291 0.000000 0.000000 0.000000 0.000000 0.000000 0.000000 -0.000000 0.000000 0.000000 -0.000000 0.000000 0.000000 0.677517 -0.648509 -0.045728 -1.111263 -1.004222 0.062013 0.000000 0.000000 0.000000 0.000000 0.000000 0.000000 -0.028711 -0.033442 -25.236327 -0.000000 0.000000 0.000000 -0.000000 0.000000 0.000000 0.000000 0.000000 0.000000 -0.028711 -0.033442 -25.236327 -0.000000 0.000000 0.000000 0.717649 2.274123 -0.682739 0.000000 0.000000 0.000000
-29.964302 81.643833 333.476748 0.027741 0.085282 25.177988 -0.061387 -0.065377 -25.178044 -0.000000 0.000000 0.000000 -0.000000 0.000000 0.000000 0.000000 0.000000 0.000000 -0.000000 0.000000 0.000000 -0.000000 0.000000 0.000000 -4.864844 2.028154 -0.374579 4.436231 1.558159 0.845869 0.000000 0.000000 0.000000 0.000000 0.000000 0.000000 -0.000000 0.000000 0.000000 -0.000000 0.000000 0.000000 1.217056 -1.075735 -0.082662 -1.990930 -1.799950 0.120110 0.000000 0.000000 0.000000 0.000000 0.000000 0.000000 -0.061387 -0.065377 -25.178044 -0.000000 0.000000 0.000000 0.568687 -0.656331 -0.165831 0.000000 0.000000 0.000000 -0.061387 -0.065377 -25.178044 -0.000000 0.000000 0.000000 1.394314 4.045584 -1.281040 0.000000 0.000000 0.000000
-29.966030 81.625297 333.397790 0.048086 0.128378 25.120875 -0.098038 -0.095821 -25.121011 -0.000000 0.000000 0.000000 -0.000000 0.000000 0.000000 0.000000 0.000000 0.000000 -0.000000 0.000000 0.000000 -0.000000 0.000000 0.000000 -6.730361 2.987906 -0.484711 6.014577 2.146481 1.245880 0.000000 0.000000 0.000000 0.000000 0.000000 0.000000 -0.000000 0.000000 0.000000 -0.000000 0.000000 0.000000 1.621801 -1.284899 -0.115572 -2.649616 -2.409721 0.170523 0.000000 0.000000 0.000000 0.000000 0.000000 0.000000 -0.098038 -0.095821 -25.121011 -0.000000 0.000000 0.000000 0.839991 -0.950059 -0.248799 0.000000 0.000000 0.000000 -0.098038 -0.095821 -25.121011 -0.000000 0.000000 0.000000 2.024579 5.344118 -1.791369 0.000000 0.000000 0.000000
-29.964025 81.608102 333.323657 0.072748 0.171784 25.064982 -0.138673 -0.124787 -25.065242 -0.000000 0.000000 0.000000 -0.000000 0.000000 0.000000 0.000000 0.000000 0.000000 -0.000000 0.000000 0.000000 0.231501 -0.858422 -0.041311 -8.453219 4.748879 -0.391236 7.166707 2.542898 1.606673 0.000000 0.000000 0.000000 0.000000 0.000000 0.000000 -0.000000 0.000000 0.000000 -0.000000 0.000000 0.000000 1.894123 -1.278031 -0.147604 -3.095528 -2.849739 0.210976 0.000000 0.000000 0.000000 0.000000 0.000000 0.000000 -0.138673 -0.124787 -25.065242 -0.000000 0.000000 0.000000 1.102410 -1.220418 -0.332070 0.000000 0.000000 0.000000 -0.138673 -0.124787 -25.065242 -0.000000 0.000000 0.000000 2.605343 6.194670 -2.210811 0.000000 0.000000 0.000000
-29.958289 81.592249 333.254351 0.101732 0.215506 25.010317 -0.183305 -0.152287 -25.010752 -0.000000 0.000000 0.000000 -0.000000 0.000000 0.000000 0.000000 0.000000 0.000000 -0.000000 0.000000 0.000000 0.192613 -0.899073 -0.038852 -9.506156 5.661282 -0.419997 7.899887 2.706082 1.912105 0.000000 0.000000 0.000000 0.000000 0.000000 0.000000 -0.000000 0.000000 0.000000 -0.000000 0.000000 0.000000 2.035550 -1.055791 -0.180378 -3.334088 -3.129842 0.240758 0.000000 0.000000 0.000000 0.000000 0.000000 0.000000 -0.183305 -0.152287 -25.010752 -0.000000 0.000000 0.000000 1.355818 -1.467137 -0.415837 0.000000 0.000000 0.000000 -0.183305 -0.152287 -25.010752 -0.000000 0.000000 0.000000 3.135301 6.615398 -2.536657 0.000000 0.000000 0.000000
-29.945866 81.576502 333.171946 0.137451 0.271299 24.915814 -0.238954 -0.188141 -24.916532 -0.000000 0.000000 0.000000 -0.000000 0.000000 0.000000 0.000000 0.000000 0.000000 -0.000000 0.000000 0.000000 0.124741 -0.868953 -0.032247 -10.926919 8.389254 -0.503812 8.843455 -0.237300 2.425657 0.000000 0.000000 0.000000 0.000000 0.000000 0.000000 -0.000000 0.000000 0.000000 -0.000000 0.000000 0.000000 2.114266 -0.156780 -0.256453 -3.329816 -3.299350 0.281913 0.000000 0.000000 0.000000 0.000000 0.000000 0.000000 -0.238954 -0.188141 -24.916532 -0.000000 0.000000 0.000000 1.560226 -1.777395 -0.450026 0.000000 0.000000 0.000000 -0.238954 -0.188141 -24.916532 -0.000000 0.000000 0.000000 3.236117 6.482825 -2.561310 0.000000 0.000000 0.000000
-29.927936 81.561662 333.116461 0.174924 0.317338 24.861732 -0.292133 -0.214383 -24.862763 -0.000000 0.000000 0.000000 -0.000000 0.000000 0.000000 0.000000 0.000000 0.000000 -0.000000 0.000000 0.000000 -0.000000 0.000000 0.000000 -11.190956 7.715242 -0.696693 8.648246 0.717722 2.517617 0.000000 0.000000 0.000000 0.000000 0.000000 0.000000 -0.000000 0.000000 0.000000 -0.000000 0.000000 0.000000 1.903798 0.566449 -0.282349 -2.923398 -3.340845 0.275911 0.000000 0.000000 0.000000 0.000000 0.000000 0.000000 -0.292133 -0.214383 -24.862763 -0.000000 0.000000 0.000000 1.797723 -2.038761 -0.518032 0.000000 0.000000 0.000000 -0.292133 -0.214383 -24.862763 -0.000000 0.000000 0.000000 3.410617 5.543728 -2.476206 0.000000 0.000000 0.000000
-29.911389 81.550675 333.069200 0.221055 0.359583 24.836624 -0.351648 -0.233471 -24.838034 -0.000000 0.000000 0.000000 -0.000000 0.000000 0.000000 0.000000 0.000000 0.000000 -0.000000 0.000000 0.000000 -0.000000 0.000000 0.000000 -10.266431 8.089030 -0.736427 6.682051 -0.175494 2.188116 0.000000 0.000000 0.000000 0.000000 0.000000 0.000000 -0.000000 0.000000 0.000000 -0.000000 0.000000 0.000000 1.748077 1.763681 -0.346669 -2.453394 -5.623013 0.241815 0.000000 0.000000 0.000000 0.000000 0.000000 0.000000 -0.351648 -0.233471 -24.838034 -0.000000 0.000000 0.000000 1.979337 -2.102531 -0.610189 0.000000 0.000000 0.000000 -0.351648 -0.233471 -24.838034 -0.000000 0.000000 0.000000 3.988647 4.816384 -2.614365 0.000000 0.000000 0.000000
